<svg xmlns="http://www.w3.org/2000/svg" xmlns:xlink="http://www.w3.org/1999/xlink" width="331.804" height="207.157" viewBox="0 0 331.804 207.157">
  <defs>
    <clipPath id="clip-path">
      <path id="Path_6128" data-name="Path 6128" d="M334.112,363.188A13.785,13.785,0,1,0,347.9,376.973,13.785,13.785,0,0,0,334.112,363.188Zm0,21.088a7.3,7.3,0,1,1,7.3-7.3A7.3,7.3,0,0,1,334.112,384.276Z" transform="translate(-320.327 -363.188)" fill="none"/>
    </clipPath>
  </defs>
  <g id="Group_6324" data-name="Group 6324" transform="translate(2969.441 -452.133)">
    <g id="Group_5143" data-name="Group 5143" transform="translate(-2969.441 452.133)">
      <g id="Group_5142" data-name="Group 5142" transform="translate(0 0)">
        <path id="Path_5997" data-name="Path 5997" d="M325.63,274.168c49.973-18.552,100.765-2.15,135.212,33.574s106.741-24.657,145.082,11.009c26.166,24.34,14.181,86.919-21.7,114.024-48.766,36.841-230.442,37.948-260.585,25.305-51.51-21.6-.329-61.609-24.373-99.958C270.9,312.878,303.546,282.366,325.63,274.168Z" transform="translate(-288.219 -258.205)" fill="#fff"/>
        <path id="Path_5998" data-name="Path 5998" d="M693.945,2104.11c-25.015-1.223-110.112.849-135.993,1.657s-55.922-1.066-71.527-3.821-105.807.235-101.714,7.641,40.189,3.313,81.123,6.29,132.994-.372,153.76,0,39.808-.745,66.569-2.233S708.445,2104.819,693.945,2104.11Z" transform="translate(-375.237 -1914.887)" fill="#f3e5eb"/>
        <g id="Group_5104" data-name="Group 5104" transform="translate(216.644)">
          <path id="Path_5999" data-name="Path 5999" d="M2571.376,207.466a24.152,24.152,0,0,0,.151-2.692c0-.48-.016-.957-.044-1.43l-4.449-1.44a19.554,19.554,0,0,0-1.575-5.331l2.95-3.63a24.066,24.066,0,0,0-2.337-3.4l-4.45,1.452a19.766,19.766,0,0,0-4.4-3.386l.253-4.675a23.8,23.8,0,0,0-3.884-1.377l-2.748,3.792a19.788,19.788,0,0,0-5.555-.146l-2.543-3.932a23.8,23.8,0,0,0-3.952,1.168l.005,4.682a19.729,19.729,0,0,0-4.578,3.149l-4.365-1.684a24.082,24.082,0,0,0-2.514,3.269l2.755,3.782a19.544,19.544,0,0,0-1.857,5.239l-4.518,1.2a24.151,24.151,0,0,0-.151,2.693c0,.48.016.957.043,1.43l4.449,1.44a19.545,19.545,0,0,0,1.575,5.331l-2.95,3.63a24.068,24.068,0,0,0,2.337,3.4l4.45-1.452a19.768,19.768,0,0,0,4.4,3.386l-.253,4.675a23.8,23.8,0,0,0,3.884,1.377l2.748-3.792a19.778,19.778,0,0,0,5.554.145l2.544,3.932a23.8,23.8,0,0,0,3.952-1.168l-.006-4.682a19.74,19.74,0,0,0,4.579-3.149l4.365,1.684a24.1,24.1,0,0,0,2.514-3.269L2565,213.907a19.536,19.536,0,0,0,1.857-5.239Zm-23.83,6.713a9.406,9.406,0,1,1,9.406-9.406A9.406,9.406,0,0,1,2547.546,214.179Z" transform="translate(-2523.565 -181.274)" fill="#7f7f7f" opacity="0.5"/>
          <g id="Group_5101" data-name="Group 5101" transform="translate(36.325 17.724)">
            <path id="Path_6000" data-name="Path 6000" d="M2898.857,380.788a.485.485,0,0,1-.372-.794,15.781,15.781,0,0,0,2.78-15.2.485.485,0,0,1,.917-.316,16.749,16.749,0,0,1-2.951,16.134A.484.484,0,0,1,2898.857,380.788Z" transform="translate(-2898.372 -364.152)" fill="#7f7f7f"/>
          </g>
          <g id="Group_5102" data-name="Group 5102" transform="translate(29.373 7.746)">
            <path id="Path_6001" data-name="Path 6001" d="M2832.715,265.611a.484.484,0,0,1-.333-.132,15.654,15.654,0,0,0-5.423-3.342.485.485,0,1,1,.331-.911,16.625,16.625,0,0,1,5.757,3.547.484.484,0,0,1-.332.837Z" transform="translate(-2826.64 -261.197)" fill="#7f7f7f"/>
          </g>
          <g id="Group_5103" data-name="Group 5103" transform="translate(19.848 6.777)">
            <path id="Path_6002" data-name="Path 6002" d="M2728.845,252.661a.485.485,0,0,1-.118-.955,16.787,16.787,0,0,1,4.1-.508.485.485,0,1,1,0,.969,15.809,15.809,0,0,0-3.868.478A.484.484,0,0,1,2728.845,252.661Z" transform="translate(-2728.361 -251.199)" fill="#7f7f7f"/>
          </g>
        </g>
        <path id="Path_8126" data-name="Path 8126" d="M0,0H149.879V90.025H0Z" transform="translate(76.243 0.068)" fill="#f3e5eb"/>
        <rect id="Rectangle_1980" data-name="Rectangle 1980" width="141.007" height="82.645" transform="translate(83.544 2.265)" fill="#fff"/>
        <g id="Group_5107" data-name="Group 5107" transform="translate(167.972 40.593)">
          <path id="Path_6003" data-name="Path 6003" d="M2331.55,604.494c6.72-6.4,18.2-6.251,17.962,3.489s.562,10.656,3.327,15.765c9.595,17.729-11.436,16.686-20.208,17.268s-8.044-15.943-6.493-25.1S2329.584,606.366,2331.55,604.494Z" transform="translate(-2295.739 -600.11)" fill="#303c60"/>
          <path id="Path_6004" data-name="Path 6004" d="M2342.26,1221.577c-2.155,18.092-6.069,31.466-6.5,40.043s-2.18,42.347-2.18,42.347,4.8-.335,5.233-1.062,9.013-19.77,8.577-31.545,8.566-29.679,8.566-29.679l-2.17-17.566Z" transform="translate(-2303.316 -1161.346)" fill="#97144d"/>
          <path id="Path_6005" data-name="Path 6005" d="M2386.83,1302.845l-3.369,1.41c-.916,5.737-1.932,10.9-2.824,15.47,5.361,3.466,8.131,15.015,9.318,22.075.6-7.9,4.332-17.446,6.645-22.725Z" transform="translate(-2345.817 -1234.738)" fill="#621536"/>
          <path id="Path_6006" data-name="Path 6006" d="M2471.094,1202.759s7.261,9.262,7.034,19.77c-.346,16-2.091,20.563.944,37.336,1.186,6.551-2.616,27.98-2.616,27.98s-3.249.255-4.993-.614c.146-1.575-2.1-27.187-6.47-38.962-2.116-5.7-5.092-21.67-6.691-30.828s-1.89-11.048-1.308-11.048S2471.094,1202.759,2471.094,1202.759Z" transform="translate(-2414.524 -1144.352)" fill="#621536"/>
          <path id="Path_6007" data-name="Path 6007" d="M2129.656,853.057s.323-4.793-.194-6.273-4.975-2.773-4.975-2.773-.194,6.849.258,7.689a25.617,25.617,0,0,0,3.1,3.23Z" transform="translate(-2114.455 -820.373)" fill="#f09959"/>
          <path id="Path_6008" data-name="Path 6008" d="M2173.936,901.313c-10.208,10.987-13.539,15.61-14.315,15.61-2.423-4.277-10.471-13.323-10.471-13.323l-3.431,2.206s7.93,20.719,12.969,20.932,15.283-7.145,15.413-7.99S2173.936,901.313,2173.936,901.313Z" transform="translate(-2133.667 -872.121)" fill="#f3e5eb"/>
          <path id="Path_6009" data-name="Path 6009" d="M2327.015,925.665c4.993-2.033,10.715-6.285,10.812-6.915.13-.845-.166-17.436-.166-17.436-2.226,2.4-4.168,4.52-5.854,6.378C2329.979,914.5,2330.1,921.916,2327.015,925.665Z" transform="translate(-2297.392 -872.121)" fill="#97144d"/>
          <path id="Path_6010" data-name="Path 6010" d="M2395.852,826.678s9.768,4.9,11.9,13.563-4.177,19.375-4.952,25.089-18.607,6.719-18.607.6c0-5.864-4.468-18.311-4.216-21.482.592-7.439,11.467-16.553,11.467-16.553Z" transform="translate(-2345.212 -804.72)" fill="#f3e5eb"/>
          <path id="Path_6011" data-name="Path 6011" d="M2440.53,710.826l4.194,12.932a112.578,112.578,0,0,0-12.141,11.768c.3-5.531,4.932-11.561,4.932-11.561l-3.173-12.212Z" transform="translate(-2392.729 -700.096)" fill="#f09959"/>
          <path id="Path_6012" data-name="Path 6012" d="M2458.88,716.858l-1.956-6.032-6.188.927,3.172,12.212s-.31.494-.766,1.27A14.9,14.9,0,0,0,2458.88,716.858Z" transform="translate(-2409.123 -700.096)" fill="#e38540"/>
          <path id="Path_6013" data-name="Path 6013" d="M2380.921,655.58c-1.131,4.115-5.511,6.381-8.623,5.525s-3.778-4.508-2.647-8.623,4.571-6.758,7.684-5.9S2382.052,651.465,2380.921,655.58Z" transform="translate(-2335.43 -641.931)" fill="#f09959"/>
          <path id="Path_6014" data-name="Path 6014" d="M2381.2,1090.008c1.358,8.6-3.684,27.015-3.684,27.015s3.007.683,12.02-.189,12.987-9.868,14.344-10.119,2.054,8.371,2.723,9.053.771-10.889-.978-15.437c-3.1-8.063-2.494-11.483-1.335-16.368C2406.349,1075.275,2381.2,1090.008,2381.2,1090.008Z" transform="translate(-2342.997 -1034.592)" fill="#ddd"/>
          <path id="Path_6015" data-name="Path 6015" d="M2244.573,2027.978c.812,3.3-.791,5.914-2.936,7.821-1.744,1.551-7.107,2.209-6.849,2.985s6.591,1.021,8.723.7,2.714-1.357,5.368-1.356c1.74,0,2.063-1.414,1.287-3.163s-1.047-2.716-.346-4.284S2244.573,2027.978,2244.573,2027.978Z" transform="translate(-2214.095 -1889.593)" fill="#7f7f7f"/>
          <path id="Path_6016" data-name="Path 6016" d="M2608.076,2005.618c-.129,3.424-.527,5.975.313,7.563,3.244,2.714,5.941,5.8,4.911,6.009-4.911,1.014-6.785-1.929-9.563-2.766-3.409-1.026.323-5.311-1.013-10.806-.743-3.055,5.148-2.323,5.148-2.323Z" transform="translate(-2545.958 -1867.233)" fill="#7f7f7f"/>
          <path id="Path_6017" data-name="Path 6017" d="M2461.157,922.031a16.148,16.148,0,0,0-.733-2.807c-3.1-8.063-2.494-11.483-1.334-16.368a3.855,3.855,0,0,0,.117-1.02c.261-.871.505-1.754.719-2.642l-1.052-9.5-7.59-9.013c-5.688,8.335-1.849,18.705-2.7,24.423S2438.2,918.11,2438.2,918.11l.311,2.029a5.151,5.151,0,0,0,5.794,4.329c3.928-.545,9.081-1.641,11.374-3.768C2457.895,918.641,2459.859,920.234,2461.157,922.031Z" transform="translate(-2397.799 -853.486)" fill="#97144d"/>
          <path id="Path_6018" data-name="Path 6018" d="M2394.218,1263.53s-4.208,1.177-4.711,1.441-.781,1.654-.781,1.654-2.408,2.091-1.485,2.832,2.57,2.615,4.748,1.743c1.337-.535,2.373-5.448,3.25-5.487S2394.218,1263.53,2394.218,1263.53Z" transform="translate(-2351.59 -1199.233)" fill="#f09959"/>
          <path id="Path_6019" data-name="Path 6019" d="M2463.666,869.321c4.5.128,8.585,8.238,10.008,15.274s2.92,17.04,2.92,17.04-7.463,5.89-14.837,7.611c-6.432,1.5-9.716,2.089-9.716,2.089l-1.305-3.672,15.391-9.04s-5.659-10.661-6.222-18.705S2460.243,869.224,2463.666,869.321Z" transform="translate(-2409.123 -843.228)" fill="#f3e5eb"/>
          <rect id="Rectangle_1981" data-name="Rectangle 1981" width="11.449" height="7.271" transform="translate(0 24.277) rotate(-11.346)" fill="#f5dc95"/>
          <path id="Path_6020" data-name="Path 6020" d="M2127.305,866.452c.155-2.949-1.306-6.97-2.146-6.964s.259,2.635-.194,4.38C2124.72,864.813,2127.305,866.452,2127.305,866.452Z" transform="translate(-2114.805 -834.35)" fill="#f09959"/>
          <path id="Path_6021" data-name="Path 6021" d="M2382.965,637.623c.25,8.076,9.683,7.457,12.267,6.959s-3.146,17.039,1.777,18.051c3.615.743,2.8-4.912,6.817-4.534,1.777.167,3.563,2.914,3.563,2.914a5.486,5.486,0,0,0-1.625-2.914c-1.357-1.222-4.914-8.717-5.849-14.08s-7.267-8.831-9.141-8.939-6.461,2.025-6.461,2.025Z" transform="translate(-2347.92 -631.688)" fill="#303c60"/>
          <g id="Group_5105" data-name="Group 5105" transform="translate(46.208 12.658)">
            <path id="Path_6022" data-name="Path 6022" d="M2500.936,750.829a1.864,1.864,0,0,1-.389-.042c-1.576-.335-2.34-1.991-2.4-5.211a75.151,75.151,0,0,1,.884-10.053c.2-1.515.4-3.082.563-4.6a.236.236,0,0,1,.469.051c-.167,1.522-.369,3.091-.564,4.608-.935,7.256-1.818,14.11,1.151,14.742a1.313,1.313,0,0,0,.275.029c1.7,0,3.24-3.323,4.135-6.559a.236.236,0,1,1,.455.126C2504.921,746.058,2503.332,750.828,2500.936,750.829Z" transform="translate(-2498.138 -730.714)" fill="#303c60"/>
          </g>
          <g id="Group_5106" data-name="Group 5106" transform="translate(45.546 12.658)">
            <path id="Path_6023" data-name="Path 6023" d="M2494.142,752.706a1.861,1.861,0,0,1-1.4-.62c-3.216-3.4-.036-20.455.1-21.179a.236.236,0,1,1,.464.088c-.033.175-3.273,17.542-.222,20.767a1.408,1.408,0,0,0,1.283.457c1.67-.221,2.635-2.486,3.485-4.485.825-1.939,1.6-3.771,2.984-3.722a.236.236,0,1,1-.017.472h-.034c-1.036,0-1.747,1.669-2.5,3.436-.9,2.115-1.92,4.513-3.857,4.769A2.233,2.233,0,0,1,2494.142,752.706Z" transform="translate(-2491.313 -730.714)" fill="#303c60"/>
          </g>
          <path id="Path_6024" data-name="Path 6024" d="M2487.347,724.455a1.5,1.5,0,1,1,.081-2.423A1.759,1.759,0,0,1,2487.347,724.455Z" transform="translate(-2439.685 -710.01)" fill="#f09959"/>
        </g>
        <g id="Group_5112" data-name="Group 5112" transform="translate(107.495 77.222)">
          <path id="Path_6025" data-name="Path 6025" d="M1598.423,1008.8a8.445,8.445,0,0,1-4.133,11.782c-4.559,1.886-9.545.815-11.848-3.79a8.942,8.942,0,1,1,15.981-7.992Z" transform="translate(-1563.579 -1001.075)" fill="#303c60"/>
          <g id="Group_5108" data-name="Group 5108" transform="translate(17.35 7.452)">
            <path id="Path_6026" data-name="Path 6026" d="M1581.457,1067.549a4.309,4.309,0,0,1-2.784-1.31,7.117,7.117,0,0,1-2.113-4,13.922,13.922,0,0,1,.776-7.135.236.236,0,1,1,.446.154,13.463,13.463,0,0,0-.758,6.891,6.647,6.647,0,0,0,1.962,3.739c1.615,1.433,2.7,1.172,2.709,1.169a.238.238,0,0,1,.289.166.235.235,0,0,1-.162.289A1.439,1.439,0,0,1,1581.457,1067.549Z" transform="translate(-1576.377 -1054.942)" fill="#303c60"/>
          </g>
          <g id="Group_5111" data-name="Group 5111" transform="translate(0 24.03)">
            <path id="Path_6027" data-name="Path 6027" d="M1688.832,1242.649c2.621.588,5.93,7.871,7.551,12.537,1.634,4.707,4.405,10.545,6.219,12.359s13.734,6.02,13.734,6.02-29.452.057-28.849,0S1688.832,1242.649,1688.832,1242.649Z" transform="translate(-1659.36 -1241.035)" fill="#f3e5eb"/>
            <path id="Path_6028" data-name="Path 6028" d="M1715.452,1271.225c-1.612-.23-7.429.518-4.952-.518s2.131-2.361,2.131-2.361-3.513,2.937-4.146.369c-.546-2.214-.755-10.033-2.828-17.869-1.713-3.885-3.954-7.773-5.84-8.2,0,0-.066,2.759-.176,6.628.723,8.562,1.951,21.139,2.262,24.31,3.9.006,10.437,0,15.9-.007l3.635-.173A39.008,39.008,0,0,0,1715.452,1271.225Z" transform="translate(-1670.344 -1241.035)" fill="#d5d5d5"/>
            <path id="Path_6029" data-name="Path 6029" d="M1503.21,1226s-8.338,4.659-10.281,5.649,5.445,30.071,7.088,31.317,16.11.215,17.757-1.356-1.264-6.389.161-16.037-4.347-17.978-5.089-17.959a49.849,49.849,0,0,1-5.582-1.614Z" transform="translate(-1483.374 -1225.996)" fill="#f3e5eb"/>
            <path id="Path_6030" data-name="Path 6030" d="M1500.26,1319.562c1.643,1.246,12,1.274,16.4-.1.5-.155,2.755-1.055,2.808-1.9-.532-.1-2.643.154-3.5-.043-2.98-.685-4.621-4.377-4.621-4.377s-1.641-.59-5.312-2.145-2.159-6.263-2.246-8.336-3.628-8.854-10.28-13.994l-.61.273C1492.425,1293.669,1498.74,1318.41,1500.26,1319.562Z" transform="translate(-1483.617 -1282.596)" fill="#d5d5d5"/>
            <g id="Group_5110" data-name="Group 5110" transform="translate(32.464 14.067)">
              <path id="Path_6031" data-name="Path 6031" d="M1887.845,1372.006h-20.076l-9.144,19.458h22.114l8.277-17.613A1.294,1.294,0,0,0,1887.845,1372.006Z" transform="translate(-1846.384 -1371.923)" fill="#97144d"/>
              <g id="Group_5109" data-name="Group 5109">
                <path id="Path_6032" data-name="Path 6032" d="M1745.759,1390.96h-12.081a1.357,1.357,0,0,1,0-2.714h11.215l7.583-16.319a1.357,1.357,0,0,1,2.461,1.143l-7.947,17.1A1.357,1.357,0,0,1,1745.759,1390.96Z" transform="translate(-1732.321 -1371.143)" fill="#97144d"/>
              </g>
            </g>
            <path id="Path_6033" data-name="Path 6033" d="M1641.2,1532.736c5.241.979,6.529,2.182,9.386,2.643,3.239.522,2.853,1.238.448,1.238s-8.449.093-10.524-.367S1641.2,1532.736,1641.2,1532.736Z" transform="translate(-1616.243 -1503.008)" fill="#f09959"/>
            <path id="Path_6034" data-name="Path 6034" d="M1406.254,1285.209c-4.016,12.842-9.71,27.414-8.8,27.414s23.97.932,24.877.156.648-3.756.519-4.145-13.112-2.693-13.112-2.693,1.71-3.332,2.357-9.843S1407.016,1282.774,1406.254,1285.209Z" transform="translate(-1397.354 -1279.014)" fill="#f3e5eb"/>
          </g>
          <path id="Path_6035" data-name="Path 6035" d="M1603.381,1110.857l-3.236,11.823s5.467,8.533,6.97,7.775-.84-6.936-.84-7.775,2.343-9.5,2.343-9.5Z" transform="translate(-1580.491 -1097.986)" fill="#f09959"/>
          <path id="Path_6036" data-name="Path 6036" d="M1626.559,1123.283a3.165,3.165,0,0,1-.112-.6c0-.839,2.343-9.5,2.343-9.5l-5.238-2.322-1.071,3.912A20.4,20.4,0,0,0,1626.559,1123.283Z" transform="translate(-1600.662 -1097.986)" fill="#e38540"/>
          <path id="Path_6037" data-name="Path 6037" d="M1649.953,1059.72c.616,3.428.21,7.982-2.834,9.14s-6.712-1.057-8.191-4.947-.21-7.982,2.834-9.14A6.419,6.419,0,0,1,1649.953,1059.72Z" transform="translate(-1614.957 -1047.045)" fill="#f09959"/>
          <path id="Path_6038" data-name="Path 6038" d="M1620.652,1113.144a2.072,2.072,0,0,1-.828,2.74c-.884.315-1.946-.4-2.373-1.6a2.072,2.072,0,0,1,.828-2.74C1619.163,1111.229,1620.225,1111.945,1620.652,1113.144Z" transform="translate(-1595.96 -1098.539)" fill="#f09959"/>
          <path id="Path_6039" data-name="Path 6039" d="M1628.971,1039.134c-1.037,8.045-10.811,7.009-10.811,7.009s-2.016-2.65-2.923-1.26,1.258-8.156,6.867-8.457C1623.947,1036.327,1628.971,1039.134,1628.971,1039.134Z" transform="translate(-1593.94 -1030.766)" fill="#303c60"/>
          <ellipse id="Ellipse_23" data-name="Ellipse 23" cx="5.294" cy="4.967" rx="5.294" ry="4.967" transform="translate(14.508)" fill="#303c60"/>
        </g>
        <g id="Group_5115" data-name="Group 5115" transform="translate(116.752 132.925)">
          <g id="Group_5114" data-name="Group 5114" transform="translate(0 2.252)">
            <path id="Path_6040" data-name="Path 6040" d="M1492.874,1838.452h1.211l7.817-36.219h-2.663Z" transform="translate(-1492.874 -1780.311)" fill="#f3e5eb"/>
            <path id="Path_6041" data-name="Path 6041" d="M1785.167,1826.522h-1.211l-9.1-37.5h2.663Z" transform="translate(-1747.529 -1768.38)" fill="#f3e5eb"/>
            <g id="Group_5113" data-name="Group 5113" transform="translate(0.683)">
              <path id="Path_6042" data-name="Path 6042" d="M1513.052,1599.313c-4.85,0-7.922-.871-9.882-2.781-2.431-2.368-2.934-6.035-2.941-10.813-.006-3.76-.1-6.21-.3-8.189a1.357,1.357,0,0,1,2.7-.278c.214,2.075.307,4.606.313,8.463.007,4.843.622,7.414,2.12,8.874,1.538,1.5,4.318,2.115,9.011,2a53.346,53.346,0,0,0,10.16-1.256c3.3-.67,5.68-1.155,8.505.2a1.357,1.357,0,0,1-1.17,2.448c-2.006-.958-3.707-.612-6.795.015a55.661,55.661,0,0,1-10.634,1.309Q1513.582,1599.314,1513.052,1599.313Z" transform="translate(-1499.922 -1576.034)" fill="#f3e5eb"/>
            </g>
          </g>
          <path id="Path_6043" data-name="Path 6043" d="M1521.7,1574.38l7.423.309-1.976,20.495s-5.533-3.532-5.447-7.333S1521.7,1574.38,1521.7,1574.38Z" transform="translate(-1518.91 -1572.288)" fill="#2e5b9a"/>
          <path id="Path_6044" data-name="Path 6044" d="M1890.164,1590.426c6.277-.952,8.41-.652,12.251,6.5s8.955,20.021,11.9,21.684c4.428,2.5,5.9,8.642,7.713,8.366s2.989.528,1.01,2.172-5.173,3.044-6.266,2.752-1.94-5.012-4.793-6.545-2-2.792-1.809-4.148-8.33-7.6-14.75-15.361c-3.923-4.744-5.943-7.875-6.242-10.712A7.443,7.443,0,0,1,1890.164,1590.426Z" transform="translate(-1850.725 -1586.425)" fill="#f09959"/>
          <path id="Path_6045" data-name="Path 6045" d="M1905.724,1616.351c-1.458-3.7-2.919-9.8-4.294-15.4-1.955-7.958-4-9.848-5.3-10.7a15.728,15.728,0,0,0-5.965.171,7.443,7.443,0,0,0-.99,4.705c.3,2.838,2.32,5.969,6.242,10.712a112.636,112.636,0,0,0,10.308,10.506Z" transform="translate(-1850.725 -1586.427)" fill="#e38540"/>
          <path id="Path_6046" data-name="Path 6046" d="M1862.847,1596.719s-1.67,12.6-3.225,13.882c-1.112.916-1.9.977-2.678-2.781s1.209-17.785,1.209-17.785Z" transform="translate(-1821.496 -1586.425)" fill="#2e5b9a"/>
          <path id="Path_6047" data-name="Path 6047" d="M1761.778,1624.369l-15.456,2.6,8.726-12.512,6.641-1.352,3.982.916Z" transform="translate(-1721.758 -1607.257)" fill="#f09959"/>
          <path id="Path_6048" data-name="Path 6048" d="M2103.246,1911.651c-.5,2.019-.441,3.512.43,4.26s4.16,6.306,4.16,6.306l1.025-.156-2.373-5.086Z" transform="translate(-2043.804 -1876.872)" fill="#7f7f7f"/>
          <path id="Path_6049" data-name="Path 6049" d="M2110.309,1921.466c1.093.292,4.288-1.108,6.266-2.753s.808-2.448-1.01-2.172a.785.785,0,0,1-.3-.015c-.908,2.028-3.895,3.55-4.858,1.407-.955-2.123-5.048-6.35-6.7-7.254a.37.37,0,0,1,0,.094c-.187,1.356-1.045,2.615,1.809,4.148S2109.217,1921.174,2110.309,1921.466Z" transform="translate(-2044.266 -1875.994)" fill="#7f7f7f"/>
          <path id="Path_6050" data-name="Path 6050" d="M1549.691,1594.272c-5.484,9.841-1.738,16.1,4.927,16.733s17.187-.58,23.32-5.676,11.168-10.486,10.465-11.29S1549.691,1594.272,1549.691,1594.272Z" transform="translate(-1541.8 -1589.766)" fill="#e38540"/>
          <path id="Path_6051" data-name="Path 6051" d="M1883.82,1619.123c1.123-3.369,2.417-5.954,4.924-6,2.635-.049,4.256,1.322,4.369,5.633.134,5.133.315,22.135.078,29.694-.179,5.722,1.488,7.555,1.347,13.52-.106,4.493,4.684,2.223,2.834,4.553-1.273,1.6-5.06,1.078-7.386.783-2.073-.264,1.073-6.476-1.8-8.137-2.462-1.425-2.51-3.739-.955-5.491s.173-6.935-.864-10.563a80.131,80.131,0,0,1-3.7-16.132A20.552,20.552,0,0,1,1883.82,1619.123Z" transform="translate(-1844.83 -1607.275)" fill="#f09959"/>
          <path id="Path_6052" data-name="Path 6052" d="M1929.083,2041.491a10.851,10.851,0,0,1-2.624.537c-1.728.058-2.246-1.843-2.361-4.424a12.379,12.379,0,0,0-3.417-7.243c-.031.041-.062.081-.1.119-1.555,1.752-1.507,4.066.955,5.491,2.869,1.661-.277,7.873,1.8,8.137,2.326.3,6.114.819,7.386-.783C1931.925,2041.81,1930.432,2041.69,1929.083,2041.491Z" transform="translate(-1878.182 -1984.076)" fill="#7f7f7f"/>
          <path id="Path_6053" data-name="Path 6053" d="M1912.933,2024.963s-2.519,2.631-2.289,3.725a41.816,41.816,0,0,1,1.137,5.989c.13,2.131.245,4.577.245,4.577s.907,0,.979-.258.576-8.661.576-8.661Z" transform="translate(-1870.141 -1979.202)" fill="#7f7f7f"/>
          <path id="Path_6054" data-name="Path 6054" d="M1535.666,1590.034s-3.253,13.8.857,17.63,21.174.384,25.194.155c2.721-.155,5.356,3.166,5.356,3.166s-1.9-7.7-.6-13.921,3.387-6.638,3.387-6.638l-2.782-.392Z" transform="translate(-1530.416 -1586.425)" fill="#770d3b"/>
          <path id="Path_6055" data-name="Path 6055" d="M1532.879,1552.8c1.391,2.951-1.5,8.047-.485,9.516s6.807.206,10.6-2.851,10.984-3.728,10.984-3.728Z" transform="translate(-1528.365 -1552.796)" fill="#d6d6d6"/>
          <path id="Path_6056" data-name="Path 6056" d="M1561.645,1775.852c11.489.432,23.583.228,23.583-1.484s-.518-2.921-9.416-2.23-14.944,1.642-17.622,1.037S1561.645,1775.852,1561.645,1775.852Z" transform="translate(-1551.249 -1750.701)" fill="#f3e5eb"/>
        </g>
        <rect id="Rectangle_1982" data-name="Rectangle 1982" width="164.375" height="3.128" rx="1.564" transform="translate(86.542 134.861)" fill="#7f7f7f"/>
        <g id="Group_5120" data-name="Group 5120" transform="translate(200.142 81.42)">
          <path id="Path_6057" data-name="Path 6057" d="M2981.775,1086.852a7.442,7.442,0,0,1-4.6,8.817c-2.995.849-5.131-1.817-6.245-5.741s.412-7.794,3.407-8.643S2980.662,1082.928,2981.775,1086.852Z" transform="translate(-2910.742 -1075.328)" fill="#f09959"/>
          <path id="Path_6058" data-name="Path 6058" d="M2880.666,1924.823s7.675,11.92,8.711,12.438,3.628.648,2.656,2.591-1.36,9.588-2.268,9.977-8.681,1.3-7.515,0,1.883-.648,2.472-2.98,1.415-6.738.314-7.645-7.839-9.07-7.839-9.07Z" transform="translate(-2826.422 -1837.262)" fill="#f09959"/>
          <path id="Path_6059" data-name="Path 6059" d="M2368.909,1977.643s-9.329,15.376-11.057,16.758-7.429,3.455-2.764,3.8,6.911-1.555,9.847-2.418,6.565-1.382,5.183-3.628-.808-7.149,2.171-10.259S2368.909,1977.643,2368.909,1977.643Z" transform="translate(-2353.292 -1884.963)" fill="#f09959"/>
          <path id="Path_6060" data-name="Path 6060" d="M2525.115,1609.643s-23.095-.6-32.251,6.911c-5.356,8.12-18.312,32.078-19.319,34.718.691.691,4.578,1.938,6.306,1.765,5.1-6.077,11.833-11.331,14.512-16.1,3.3-5.874,4.319-8.811,9.675-9.329s17.449-2.246,21.077-2.246S2525.115,1609.643,2525.115,1609.643Z" transform="translate(-2461.89 -1552.618)" fill="#770d3b"/>
          <path id="Path_6061" data-name="Path 6061" d="M3121.279,1852.713h-1.211l-8.681-36.219h2.663Z" transform="translate(-3037.914 -1739.433)" fill="#7f7f7f"/>
          <path id="Path_6062" data-name="Path 6062" d="M2839.275,1840.782h1.21l9.961-37.5h-2.663Z" transform="translate(-2792.175 -1727.502)" fill="#7f7f7f"/>
          <path id="Path_6063" data-name="Path 6063" d="M2718.289,1593.429l-13.427,2.318s-17.843.164-26,1.683c-7.42,1.382-8.514,9.813,0,21.423,4.836,6.595,8.926,11.855,17.288,17.787,2.127-1.562,2.941-2.153,3.529-5.91-.605-.83-2.172-6.024-2.658-7.04-4.625-9.669-10.8-13.184-10.885-14.136,1.037-1.684,27.457,8.78,32.71,2.624C2723.862,1606.3,2718.289,1593.429,2718.289,1593.429Z" transform="translate(-2641.907 -1537.986)" fill="#97144d"/>
          <path id="Path_6064" data-name="Path 6064" d="M2987.517,1278.361a14.05,14.05,0,0,0-10.506,2.614c-2.943,3-6.274,7.948-6.07,16.11.26,10.365-1.6,11.031.34,13.881,8.106,3.347,21.97,17.729,18.7,2.311-2.364-11.164,5.185-19.486-.905-31.87C2988.585,1280.4,2987.966,1279.422,2987.517,1278.361Z" transform="translate(-2910.578 -1253.316)" fill="#e5e5e5"/>
          <path id="Path_6065" data-name="Path 6065" d="M2970.943,1325.116c-.158,5.4-.921,7-.337,8.69,3.3.337,9.349,1.66,10.86,3.774,1.728,2.419,3.455,2.764,2.649.979s-2.937-4.319.345-13.015,4.837-14.57,1.613-20.617Z" transform="translate(-2910.582 -1277.446)" fill="#9a9a9a"/>
          <path id="Path_6066" data-name="Path 6066" d="M3049.261,1177.784a42.167,42.167,0,0,1-2.712-10.947l-5.7,1.684s3.239,7.256.129,9.847a29.78,29.78,0,0,0-2.222,2.03A14.05,14.05,0,0,1,3049.261,1177.784Z" transform="translate(-2972.321 -1152.739)" fill="#f09959"/>
          <path id="Path_6067" data-name="Path 6067" d="M3066.3,1171.052c-.338-.3-.76-.676-1.2-1.068l-4.65,1.374-.01.025a19,19,0,0,1,1.453,5.679,16.4,16.4,0,0,0,4.638-4.606C3066.436,1171.925,3066.361,1171.451,3066.3,1171.052Z" transform="translate(-2991.904 -1155.58)" fill="#e38540"/>
          <path id="Path_6068" data-name="Path 6068" d="M2783.074,1294.993c-5.872,2.053-5.22,8.239-10.624,17.362-2.8,4.721-5.394,4.651-5.394,4.651a125.167,125.167,0,0,1-14.492-.917c-4.968-.608-5.283.871-1.828,2.107,6.968,2.491,14.2,5.173,20.03,4.525s15.8-15.524,16.317-19.4C2787.794,1297.968,2786.032,1293.959,2783.074,1294.993Z" transform="translate(-2710.143 -1268.326)" fill="#f09959"/>
          <g id="Group_5116" data-name="Group 5116" transform="translate(49.419 39.599)">
            <path id="Path_6069" data-name="Path 6069" d="M2883.685,1468.767q-.546,0-1.12-.014a55.685,55.685,0,0,1-10.634-1.309c-3.088-.628-4.789-.973-6.794-.015a1.357,1.357,0,1,1-1.17-2.448c2.825-1.35,5.208-.866,8.505-.2a53.312,53.312,0,0,0,10.16,1.255c5.1.126,8.227-.639,9.822-2.408,1.425-1.58,1.844-4.214,1.321-8.288-.177-1.38-.355-2.528-.511-3.54a24.349,24.349,0,0,1-.371-7.61c.334-2.7,1.229-6.3,3.3-13.276a1.357,1.357,0,1,1,2.6.772c-3.877,13.057-3.68,14.332-2.85,19.7.159,1.028.339,2.194.521,3.609.633,4.919,0,8.24-2,10.452C2892.414,1467.728,2889.062,1468.767,2883.685,1468.767Z" transform="translate(-2863.194 -1429.946)" fill="#7f7f7f"/>
          </g>
          <path id="Path_6070" data-name="Path 6070" d="M2369.542,2111.357c-6.19,3.028-9.522,4.762-11.507,4.6-.469-.039-.857-.087-1.182-.137-2.208,1.3-5.731,2.846-1.767,3.14,4.665.346,6.91-1.555,9.848-2.418s6.565-1.382,5.183-3.628A4.728,4.728,0,0,1,2369.542,2111.357Z" transform="translate(-2353.292 -2005.718)" fill="#7f7f7f"/>
          <path id="Path_6071" data-name="Path 6071" d="M2936.028,2055.773c-.151,4.9-.825,9.758-3.823,10.675a5.043,5.043,0,0,1-2.159.193c-.472.583-1.047.589-1.819,1.448-1.166,1.3,6.608.388,7.515,0s1.3-8.033,2.267-9.977C2938.808,2056.515,2937.2,2056.142,2936.028,2055.773Z" transform="translate(-2872.399 -1955.521)" fill="#7f7f7f"/>
          <g id="Group_5117" data-name="Group 5117" transform="translate(10.816 33.899)">
            <path id="Path_6072" data-name="Path 6072" d="M2493.86,1390.959h-19.666a1.356,1.356,0,0,1-1.23-.785l-7.947-17.1a1.357,1.357,0,1,1,2.461-1.143l7.582,16.319h18.8a1.357,1.357,0,1,1,0,2.714Z" transform="translate(-2464.89 -1371.142)" fill="#f3e5eb"/>
          </g>
          <path id="Path_6073" data-name="Path 6073" d="M2643.316,1496.237c-3.973-.057-7.914-2.426-9.872-2.081s-8.351,4.78-7.544,4.953,5.874-2.454,6.047-2.494a8.519,8.519,0,0,0,3.973,2.5c2.707.683.019-2.028,8.409.505C2649.784,1501.27,2643.316,1496.237,2643.316,1496.237Z" transform="translate(-2599.416 -1448.303)" fill="#f09959"/>
          <path id="Path_6074" data-name="Path 6074" d="M3015.79,1231.247l.585,4.7s-5.142.306-7.7,1.746-6.334,5.6-6.334,5.6l3.085-5.311.444-3.4Z" transform="translate(-2939.436 -1210.906)" fill="#f2e5de"/>
          <path id="Path_6075" data-name="Path 6075" d="M2839.45,1289.79c-3.819-.716-5.586,2.707-8.062,8.293a80.321,80.321,0,0,1-7.544,13.245c-.841.875-14.167,0-14.167,0s-.4,3.859,0,4.319,2.707.4,2.707.4.922.735,1.785,1.318,8.178,1.677,11.575,1.5,6.507-.461,6.968-.979,9.732-14.8,10.308-19.926S2841.4,1290.155,2839.45,1289.79Z" transform="translate(-2765.284 -1263.69)" fill="#f2e5de"/>
          <path id="Path_6076" data-name="Path 6076" d="M2944.987,1023.97c-7.223.346-6.09,11.212-6.09,11.212s1.876.579,5.806-.069a21.666,21.666,0,0,1-.172-4.146,27.138,27.138,0,0,0,1.037,3.887c.831.381,1.771.043,3.369-.343a7.109,7.109,0,0,0,4.727,5.411c1.754.551,3.612,1.209,5.685.173s.933-11.633-.168-13.764c-1.652-3.2-4.4-6.061-9.15-4.55A35.29,35.29,0,0,0,2944.987,1023.97Z" transform="translate(-2882.083 -1021.366)" fill="#303c60"/>
          <path id="Path_6077" data-name="Path 6077" d="M3131.947,1174.15l2.953,4.313s-3.273,8.177,6.246,11.882c7.455,2.9,6.577,8.014,3.208,13.155s2.016,9.631,2.016,9.631.821-5.7,8.064-6.771c9.876-1.466,12.673-14.726,5.3-21.356-6.1-5.487-7.961-.943-12.093-5.866s-11.933-1.6-11.933-1.6l-2.859-4.169Z" transform="translate(-3056.481 -1158.64)" fill="#303c60"/>
          <g id="Group_5118" data-name="Group 5118" transform="translate(78.987 17.05)">
            <path id="Path_6078" data-name="Path 6078" d="M3195.939,1219.935a.236.236,0,0,1-.207-.35c2.49-4.549.458-10.061-.563-11.554-.108-.158-.21-.318-.319-.487-1-1.568-2.254-3.518-8.915-4.718a10.56,10.56,0,0,1-4.261-2.243c-2.841-2.086-6.062-4.45-13.06-1.23a.236.236,0,0,1-.2-.429c7.251-3.337,10.591-.885,13.537,1.278a10.223,10.223,0,0,0,4.065,2.159c6.864,1.236,8.176,3.283,9.229,4.927.107.166.207.323.311.475a12.8,12.8,0,0,1,1.687,4.9,11.5,11.5,0,0,1-1.1,7.149A.237.237,0,0,1,3195.939,1219.935Z" transform="translate(-3168.279 -1197.288)" fill="#303c60"/>
          </g>
          <g id="Group_5119" data-name="Group 5119" transform="translate(66.197 9.682)">
            <path id="Path_6079" data-name="Path 6079" d="M3044.009,1131.482a10.365,10.365,0,0,1-1.53-.123c-2.518-.377-5.9-1.809-6.161-9.854a.236.236,0,0,1,.229-.244.232.232,0,0,1,.243.228c.11,3.33.771,5.795,1.966,7.326a5.534,5.534,0,0,0,3.793,2.077c2.351.352,3.91-.084,4.634-1.3a.236.236,0,1,1,.406.242A3.83,3.83,0,0,1,3044.009,1131.482Z" transform="translate(-3036.318 -1121.261)" fill="#303c60"/>
          </g>
        </g>
        <g id="Group_5124" data-name="Group 5124" transform="translate(30.682 82.181)">
          <path id="Path_6080" data-name="Path 6080" d="M622.718,1285.624c-8.384,4.794-20.045,24.722-17.583,27.974s15.678-5.3,15.678-5.3Z" transform="translate(-604.801 -1260.774)" fill="#f3e5eb"/>
          <path id="Path_6081" data-name="Path 6081" d="M806.061,1030.964c-3.2-.087-2.013-2.467-5.695-1.516-1.935.5-.507,1.3-3.021,1.036s-3.752-.518-4.069,1.123-.47,2.159-1.68,2.418-1.755,2.419,0,3.887.9,2.073.513,3.282.936,1.3,1.656,2.419-.662,1.335.374,2.309a3.673,3.673,0,0,0,2.491.887l4.364-8.367Z" transform="translate(-772.48 -1029.224)" fill="#303c60"/>
          <path id="Path_6082" data-name="Path 6082" d="M1574.425,2050.478a24.693,24.693,0,0,0,8.292-1.3c3.628-1.425,6.09-3.628,5.442-1.037s-3.628,7.037-6.219,7.47-3.5,3.284-4.924,3.284-3.5-3.284-7.126-4.925C1566.584,2052.479,1574.425,2050.478,1574.425,2050.478Z" transform="translate(-1475.621 -1948.311)" fill="#7f7f7f"/>
          <path id="Path_6083" data-name="Path 6083" d="M1190.634,2050.041a17.94,17.94,0,0,0,5.376,4.587c3.526,1.944,7.594,2.879,5.072,3.758a16.542,16.542,0,0,1-9.808.518c-2.523-.732-5.481-.886-6.262-2.078s.92-4.185.212-8.659C1184.657,2044.581,1190.634,2050.041,1190.634,2050.041Z" transform="translate(-1128.589 -1948.311)" fill="#7f7f7f"/>
          <path id="Path_6084" data-name="Path 6084" d="M956.4,1630.224s27.02,10.117,29.2,12.946,30.579,28.593,30.579,30.493-4.837,5.356-4.837,5.356-24.36-14.944-30.407-22.546-20.8-11.266-28.65-11.97S956.4,1630.224,956.4,1630.224Z" transform="translate(-916.197 -1571.977)" fill="#97144d"/>
          <path id="Path_6085" data-name="Path 6085" d="M824.167,1627.362s18.486-.691,22.459,0,12.689.683,6.989,16.772c-4.469,12.611-5.943,28.577-5.943,28.577l-8.884,2.183s.352-28.71,4.592-36.354a142.5,142.5,0,0,0-16.608,3.748c-14.57,4.166-22.558,2.08-22.558,2.08l-2.169-7.6Z" transform="translate(-782.927 -1569.115)" fill="#621536"/>
          <path id="Path_6086" data-name="Path 6086" d="M828.943,1137.762l-4.517,13.345,5.706,3.757,3.234-11.531Z" transform="translate(-803.14 -1127.243)" fill="#a86b48"/>
          <path id="Path_6087" data-name="Path 6087" d="M857.335,1153.045l2.724-9.712-4.423-5.571-1.652,4.881A27.8,27.8,0,0,0,857.335,1153.045Z" transform="translate(-829.833 -1127.243)" fill="#7a4e34"/>
          <path id="Path_6088" data-name="Path 6088" d="M882.553,1097.565c.147,4.059-1.847,7.572-5.016,7.884s-6.061-2.711-6.46-6.753,1.847-7.572,5.016-7.885S882.322,1091.16,882.553,1097.565Z" transform="translate(-845.229 -1084.787)" fill="#a86b48"/>
          <path id="Path_6089" data-name="Path 6089" d="M730.773,1271.449c-13.865,9.363-5.241,24.495-2.2,35.552,2.593,9.418,2.509,15.109,2.9,15.109s9.924-1.425,15.366-6.349a83.383,83.383,0,0,0,9.121-9.693s-6.972-1.242-9.25-10.261c-1.157-4.579-.631-7.065-3.268-14.321S730.773,1271.449,730.773,1271.449Z" transform="translate(-711.657 -1247.973)" fill="#c7c7c7"/>
          <path id="Path_6090" data-name="Path 6090" d="M802.043,1237.593l1.485-3.634s4.708,3.11,6.587,4.578a10.586,10.586,0,0,0,3.038,1.814s.679,5.208.238,4.736A26.687,26.687,0,0,0,802.043,1237.593Z" transform="translate(-782.927 -1214.117)" fill="#a5a5a5"/>
          <g id="Group_5122" data-name="Group 5122" transform="translate(10.111 43.881)">
            <path id="Path_6091" data-name="Path 6091" d="M738.642,1852.713h1.211l8.681-36.219H745.87Z" transform="translate(-735.781 -1784.075)" fill="#7f7f7f"/>
            <path id="Path_6092" data-name="Path 6092" d="M1008.714,1840.782H1007.5l-9.961-37.5h2.663Z" transform="translate(-969.589 -1772.145)" fill="#7f7f7f"/>
            <g id="Group_5121" data-name="Group 5121">
              <path id="Path_6093" data-name="Path 6093" d="M725.469,1515.77c-4.849,0-7.922-.871-9.882-2.781-2.43-2.368-2.933-6.035-2.941-10.813-.015-10.045-.571-12.122-3.4-18.256a1.357,1.357,0,1,1,2.464-1.136c2.989,6.484,3.632,8.867,3.648,19.388.008,4.843.622,7.414,2.121,8.874,1.537,1.5,4.317,2.115,9.011,2a53.324,53.324,0,0,0,10.16-1.255c3.3-.67,5.68-1.155,8.505.2a1.357,1.357,0,1,1-1.17,2.448c-2.005-.958-3.706-.612-6.795.015a55.712,55.712,0,0,1-10.634,1.309Q726,1515.77,725.469,1515.77Z" transform="translate(-709.122 -1481.994)" fill="#7f7f7f"/>
            </g>
          </g>
          <g id="Group_5123" data-name="Group 5123" transform="translate(65.342 32.981)">
            <path id="Path_6094" data-name="Path 6094" d="M1300.028,1389.342h-19.666a1.357,1.357,0,0,1,0-2.714h18.8l7.583-16.319a1.357,1.357,0,1,1,2.461,1.144l-7.947,17.1A1.357,1.357,0,0,1,1300.028,1389.342Z" transform="translate(-1279.005 -1369.524)" fill="#97144d"/>
          </g>
          <path id="Path_6095" data-name="Path 6095" d="M807.34,1290.521s3.455,10.539,7.731,14.9,12.881,5.828,15.575,5.656c-2.148-.864-6.238-3.321-7.883-9.832-1.157-4.579-.631-7.065-3.268-14.321-1.958-5.386-7.989-8.307-10.968-9.454,3.718,2.67,8.367,7.068,9.8,10.415C819.909,1291.6,807.34,1290.521,807.34,1290.521Z" transform="translate(-787.711 -1253.412)" fill="#a5a5a5"/>
          <path id="Path_6096" data-name="Path 6096" d="M1278.263,1484.445s5.96-2.721,6.608-2.462,7.256,4.249,7.256,4.91-5.83-2.464-5.83-2.464.648,1.727.259,2.556-4.871.828-8.914.569S1278.263,1484.445,1278.263,1484.445Z" transform="translate(-1210.942 -1438.087)" fill="#a86b48"/>
          <path id="Path_6097" data-name="Path 6097" d="M800.155,1322.323c-5.494,11.26,13.352,22.676,24.533,23.691s24.465-2.644,24.465-2.644l-1.5-3.656s-22.4-2.923-22.967-3.333S802.167,1318.2,800.155,1322.323Z" transform="translate(-780.334 -1293.357)" fill="#f3e5eb"/>
          <path id="Path_6098" data-name="Path 6098" d="M848.163,1124.462c.509,1.339.136,2.724-.834,3.093s-2.169-.418-2.678-1.757-.136-2.724.834-3.093S847.654,1123.123,848.163,1124.462Z" transform="translate(-821.2 -1113.563)" fill="#a86b48"/>
          <path id="Path_6099" data-name="Path 6099" d="M874.136,1041.193c1.518-.633,3.228-1.312,2.7,1.267-.23,1.123,0,.806.4,1.843s-1.016,1.85-1.477,2.427.671,1.2-.251,1.892-2.136-.256-2.995,0c-2.563.765-2.246-1.251-3.686-1.67s-2.145-.354-2.419.567,1.008,3.954-.086,3.666-1.341,2.16-1.635,3.541-1.045-.954-1-2.535c.074-2.425-.528-3.443-1.421-4.122s-1.274-6.848,3.046-7.078a21.384,21.384,0,0,0,6.189-1.037C873.35,1039.565,873.444,1041.482,874.136,1041.193Z" transform="translate(-836.804 -1038.868)" fill="#303c60"/>
        </g>
        <g id="Group_5125" data-name="Group 5125" transform="translate(290.924 143.928)">
          <path id="Path_6100" data-name="Path 6100" d="M3461.709,1780.1c2.754,2.514,1.557,5.029-.479,9.7s-2.4,21.912-2.4,21.912l1.677-.24s-.24-17.721,2.036-22.51,3.233-7.184,5.269-5.628S3461.709,1780.1,3461.709,1780.1Z" transform="translate(-3442.471 -1769.074)" fill="#f3e5eb"/>
          <path id="Path_6101" data-name="Path 6101" d="M3471.49,1674.1c.335-1.49,2.321-3.1,4.977-4.47-.4,2.2-1.661,5.791-.351,6.528,1.768.994.172-4.023.854-6.781a32.8,32.8,0,0,1,8.257-2.708l-.011.03c-1.557,3.951-3.592,5.508-2.754,6.106.631.45,2.685-4.114,5.4-6.454,2.035-.108,3.757.168,4.776.974,1.575,1.247,2.632,2.353,1.048,6.149a7.115,7.115,0,0,1-3.438,1.246c-3.592.359-5.268.479-2.754,1.677,1.232.586,3.3-.033,4.969-.411-.543,1-1.21,2.133-2.021,3.422a12.671,12.671,0,0,1-1.683,2.142,5.313,5.313,0,0,1-2.7,0c-1.676-.719-5.987-2.993-7.064-2.036-1.054.938,7.983,1.531,7.357,3.914-4.381,2.524-9.394,1.323-10.28-.995C3474.877,1679.321,3470.483,1678.589,3471.49,1674.1Z" transform="translate(-3453.765 -1666.332)" fill="#97144d"/>
          <path id="Path_6102" data-name="Path 6102" d="M3440.032,1907.9c-4.79-3.592-9.7-.24-12.213,3.592s-.718,12.453-.718,12.453.958,0,.958-.359-2.634-10.177,3.592-14.608c3.9-2.771,6.7-1.437,7.064-.12s-1.557,3.712-1.557,3.712Z" transform="translate(-3413.251 -1883.101)" fill="#f3e5eb"/>
          <path id="Path_6103" data-name="Path 6103" d="M3450.674,1845.989c4.79,0,6.346,7.424,5.029,11.734s-3.114,12.333-3.114,12.333l-1.2-1.2s4.55-11.255,3.473-16.284-3.712-5.867-4.191-5.867S3450.674,1845.989,3450.674,1845.989Z" transform="translate(-3434.909 -1828.577)" fill="#97144d"/>
          <path id="Path_6104" data-name="Path 6104" d="M3482.906,1957.535a3.473,3.473,0,0,1,1.261-1.059,9.512,9.512,0,0,1-.249,1.026c-.6,1.964-1.3,4.7-1.884,7.094-.053-.307-.135-.779-.261-1.509-.03-.172-.053-.359-.07-.557A46.3,46.3,0,0,0,3482.906,1957.535Z" transform="translate(-3463.124 -1928.356)" fill="#f3e5eb"/>
          <path id="Path_6105" data-name="Path 6105" d="M3484.542,1904.871c9.1-3.832,4.306-9.089,12.328-5.617a1.4,1.4,0,1,1-.6,1.916c-2.395-.359-1.557,1.556,2.4,2.035a8.88,8.88,0,0,1,1.851.391c1.882,3.616,2.731,8.373-1.253,10.026a9.019,9.019,0,0,1-2.835.582c-1.229-.977.3-6.631-1.595-5.85-1.819.749.57,4.846.242,5.879a26.218,26.218,0,0,1-5.684-.8,2.827,2.827,0,0,1-1.5-1.729c-.6-2.515,3.353-4.071,3.472-6.226.11-1.981-1.448,4.359-5.577,5.292C3482.053,1909.029,3480.289,1906.662,3484.542,1904.871Z" transform="translate(-3463.45 -1875.656)" fill="#97144d"/>
          <path id="Path_6106" data-name="Path 6106" d="M3304.6,1817c.958-2.036-1.557-2.515-1.437-.958.106,1.379.118,4.732-1.3,5.645a22.2,22.2,0,0,1-8.268-2.746,1.024,1.024,0,0,1,.105-.624c1.078-2.155,8.023-3.951,5.867-4.67-1.716-.572-4.724,2.8-7.148,4.506-1.455-1.1-2.431-2.421-2.431-3.891,0-1.989,2.417-4.241,5.543-5.317,1.407.142,2.713.911,4.754,2.068,3.015,1.708,2.318-1.054-.533-2.693a8.587,8.587,0,0,1,6.725,3.691,4.2,4.2,0,0,0,.965,2.735c3.1,4.531-.478,7.177-4.754,7A28.067,28.067,0,0,1,3304.6,1817Z" transform="translate(-3289.991 -1794.555)" fill="#97144d"/>
          <path id="Path_6107" data-name="Path 6107" d="M3553.366,1919.8a40.687,40.687,0,0,0,8.136,5.362c3.193,1.437,2.555,6.12,2.555,6.12s.479-4.044-2.182-5.428-4.417-3.033-6.439-3.353a29.246,29.246,0,0,1-3.14-.639s.639-1.277.266-1.756S3553.366,1919.8,3553.366,1919.8Z" transform="translate(-3526.873 -1895.205)" fill="#f3e5eb"/>
          <path id="Path_6108" data-name="Path 6108" d="M3522.26,1700.848a37.551,37.551,0,0,0-16.019,9.1c-1.171,1.33-1.171,1.7-1.171,1.7l.905,1.7.426-.213s-.692-1.437,1.117-3.3a32.748,32.748,0,0,1,9.526-6.865C3519.653,1701.859,3522.26,1700.848,3522.26,1700.848Z" transform="translate(-3484.226 -1697.503)" fill="#f3e5eb"/>
          <path id="Rectangle_1983" data-name="Rectangle 1983" d="M5.851,0h0A5.852,5.852,0,0,1,11.7,5.852v5.884a0,0,0,0,1,0,0H0a0,0,0,0,1,0,0V5.851A5.851,5.851,0,0,1,5.851,0Z" transform="translate(21.872 50.772) rotate(180)" fill="#97144d"/>
          <rect id="Rectangle_1984" data-name="Rectangle 1984" width="11.703" height="0.824" transform="translate(10.169 40.38)" fill="#fff"/>
          <rect id="Rectangle_1985" data-name="Rectangle 1985" width="11.703" height="0.485" transform="translate(10.169 41.883)" fill="#fff"/>
        </g>
        <g id="Group_5141" data-name="Group 5141" transform="translate(3.112 9.718)">
          <g id="Group_5128" data-name="Group 5128" transform="translate(130.988)">
            <path id="Path_6109" data-name="Path 6109" d="M1704.236,297.731a16.187,16.187,0,1,0-28.09,10.97,7.342,7.342,0,0,1,1.945,4.978v7.256a8.56,8.56,0,0,0,8.535,8.535h2.845a8.56,8.56,0,0,0,8.535-8.535v-7.255a7.419,7.419,0,0,1,1.975-5.011A16.129,16.129,0,0,0,1704.236,297.731Z" transform="translate(-1671.863 -281.544)" fill="#e5e5e5"/>
            <path id="Path_6110" data-name="Path 6110" d="M1723.046,330.011a13.926,13.926,0,1,0-24.165,9.437,6.317,6.317,0,0,1,1.673,4.282v6.242a7.364,7.364,0,0,0,7.343,7.343h2.448a7.364,7.364,0,0,0,7.343-7.343v-6.242a6.383,6.383,0,0,1,1.7-4.311A13.874,13.874,0,0,0,1723.046,330.011Z" transform="translate(-1692.933 -312.738)" fill="#fff" opacity="0.5"/>
            <g id="Group_5126" data-name="Group 5126" transform="translate(6.933 20.433)">
              <path id="Path_6111" data-name="Path 6111" d="M1755.044,506.987h-5.33a.485.485,0,0,1-.483-.44c-.01-.1-1-10.394-5.606-13.275a.485.485,0,1,1,.515-.821c4.489,2.811,5.764,11.481,6.009,13.568h4.383a15.869,15.869,0,0,1,.436-3.886,21.344,21.344,0,0,1,5.214-9.6.485.485,0,1,1,.714.656c-6.05,6.586-5.377,13.193-5.37,13.259a.485.485,0,0,1-.481.539Z" transform="translate(-1743.398 -492.376)" fill="#7f7f7f"/>
            </g>
            <g id="Group_5127" data-name="Group 5127" transform="translate(6.334 15.471)">
              <path id="Path_6112" data-name="Path 6112" d="M1753.456,447.692c-1.8,0-4.253-1.278-6.837-2.664-3.338,1.778-6.454,3.372-8.2,2.314-.82-.5-1.212-1.47-1.2-2.974a3.074,3.074,0,0,1,1.207-2.837c1.748-1.035,4.871.616,8.193,2.4,3.387-1.806,6.576-3.488,8.318-2.427.782.476,1.169,1.444,1.151,2.877-.019,1.491-.448,2.494-1.274,2.98A2.63,2.63,0,0,1,1753.456,447.692Zm-5.807-3.213c2.661,1.414,5.445,2.768,6.674,2.044.514-.3.782-1.029.8-2.158.014-1.066-.217-1.751-.686-2.036C1753.246,441.606,1750.361,443.041,1747.649,444.479Zm-7.911-2.3a1.583,1.583,0,0,0-.816.189c-.476.282-.722.959-.731,2.012-.01,1.117.236,1.836.732,2.137,1.2.725,3.989-.622,6.668-2.036C1743.424,443.321,1741.151,442.175,1739.738,442.175Z" transform="translate(-1737.221 -441.171)" fill="#7f7f7f"/>
            </g>
            <rect id="Rectangle_1986" data-name="Rectangle 1986" width="7.075" height="4.264" rx="2.132" transform="translate(12.813 45.964)" fill="#7f7f7f"/>
            <path id="Path_6113" data-name="Path 6113" d="M1731.28,634.135v5.132a8.965,8.965,0,0,0,8.938,8.938h2.98a8.965,8.965,0,0,0,8.938-8.938v-5.132Z" transform="translate(-1725.522 -599.963)" fill="#7f7f7f"/>
            <rect id="Rectangle_1987" data-name="Rectangle 1987" width="22.743" height="2.455" rx="1.228" transform="translate(4.946 33.332)" fill="#f3e5eb"/>
            <path id="Path_6114" data-name="Path 6114" d="M1745.2,647.005l-20.264,2.5a1.166,1.166,0,0,1-1.3-1.012l-.016-.128a1.166,1.166,0,0,1,1.011-1.3l20.263-2.5a1.167,1.167,0,0,1,1.3,1.012l.016.128A1.166,1.166,0,0,1,1745.2,647.005Z" transform="translate(-1718.596 -609.377)" fill="#f3e5eb"/>
            <path id="Path_6115" data-name="Path 6115" d="M1745.2,683.6l-20.264,2.5a1.166,1.166,0,0,1-1.3-1.012l-.016-.128a1.166,1.166,0,0,1,1.011-1.3l20.263-2.5a1.167,1.167,0,0,1,1.3,1.012l.016.128A1.166,1.166,0,0,1,1745.2,683.6Z" transform="translate(-1718.596 -642.423)" fill="#f3e5eb"/>
            <path id="Path_6116" data-name="Path 6116" d="M1764.634,722.762l-16.877,2.085a1.07,1.07,0,0,1-1.19-.928l-.039-.318a1.07,1.07,0,0,1,.928-1.19l16.877-2.085a1.07,1.07,0,0,1,1.19.928l.039.318A1.071,1.071,0,0,1,1764.634,722.762Z" transform="translate(-1739.285 -677.792)" fill="#f3e5eb"/>
          </g>
          <g id="Group_5130" data-name="Group 5130" transform="translate(291.577 37.17)">
            <path id="Path_6117" data-name="Path 6117" d="M3339.7,691.657h10.878a10.878,10.878,0,1,1-10.878-10.878Z" transform="translate(-3328.827 -679.256)" fill="#7f7f7f"/>
            <g id="Group_5129" data-name="Group 5129" transform="translate(1.822)">
              <path id="Path_6118" data-name="Path 6118" d="M3470.737,675.942a10.878,10.878,0,0,0-10.878-10.878v10.878Z" transform="translate(-3448.982 -665.064)" fill="#97144d"/>
              <path id="Path_6119" data-name="Path 6119" d="M3347.624,777.3a10.877,10.877,0,0,0,10.877,10.878A10.93,10.93,0,0,1,3347.624,777.3Z" transform="translate(-3347.624 -766.422)" fill="#7f7f7f"/>
              <path id="Path_6120" data-name="Path 6120" d="M3358.5,665.064a10.877,10.877,0,0,0-10.877,10.878A10.93,10.93,0,0,1,3358.5,665.064Z" transform="translate(-3347.624 -665.064)" fill="#7f7f7f"/>
              <path id="Path_6121" data-name="Path 6121" d="M3459.859,788.178a10.878,10.878,0,0,0,10.878-10.878A10.929,10.929,0,0,1,3459.859,788.178Z" transform="translate(-3448.982 -766.422)" fill="#7f7f7f"/>
            </g>
          </g>
          <g id="Group_5131" data-name="Group 5131" transform="translate(89.564 33.166)">
            <rect id="Rectangle_1988" data-name="Rectangle 1988" width="2.376" height="6.874" transform="translate(0 9.21)" fill="#e5e5e5"/>
            <rect id="Rectangle_1989" data-name="Rectangle 1989" width="2.376" height="4.638" transform="translate(30.451 11.446)" fill="#e5e5e5"/>
            <rect id="Rectangle_1990" data-name="Rectangle 1990" width="2.376" height="16.084" transform="translate(10.068)" fill="#e5e5e5"/>
            <rect id="Rectangle_1991" data-name="Rectangle 1991" width="2.376" height="7.229" transform="translate(15.103 8.854)" fill="#e5e5e5"/>
            <rect id="Rectangle_1992" data-name="Rectangle 1992" width="2.376" height="9.276" transform="translate(20.137 6.808)" fill="#e5e5e5"/>
            <rect id="Rectangle_1993" data-name="Rectangle 1993" width="2.376" height="11.413" transform="translate(5.034 4.671)" fill="#e5e5e5"/>
            <rect id="Rectangle_1994" data-name="Rectangle 1994" width="2.376" height="14.057" transform="translate(25.188 2.027)" fill="#e5e5e5"/>
          </g>
          <g id="Group_5133" data-name="Group 5133" transform="translate(0 7.913)">
            <g id="Group_5132" data-name="Group 5132" clip-path="url(#clip-path)">
              <path id="Path_6122" data-name="Path 6122" d="M454.023,513.043l-12.459-7.619-2.254,14.429A14.62,14.62,0,0,0,454.023,513.043Z" transform="translate(-427.779 -491.639)" fill="#7f7f7f"/>
              <path id="Path_6123" data-name="Path 6123" d="M475.036,448.71c.034-.055.078-.131.076-.128a14.605,14.605,0,0,0,.323-14.376c-4.409,2.31-1.783.907-12.871,6.9C475.044,448.74,473.106,447.563,475.036,448.71Z" transform="translate(-448.779 -427.323)" fill="#e5e5e5"/>
              <path id="Path_6124" data-name="Path 6124" d="M321.248,364.442l13.7,5.047,12.848-6.947C341.782,351.427,325.605,352.76,321.248,364.442Z" transform="translate(-321.159 -355.703)" fill="#97144d"/>
              <path id="Path_6125" data-name="Path 6125" d="M324.134,472.829l2.254-14.429-13.7-5.047A14.634,14.634,0,0,0,324.134,472.829Z" transform="translate(-312.603 -444.615)" fill="#e5e5e5"/>
              <path id="Path_6126" data-name="Path 6126" d="M309.536,413.581a1.4,1.4,0,0,1,.692.179,13.952,13.952,0,0,1,.5-1.943l7.437,2.74v-.007a1.321,1.321,0,0,1,.323-.907l-.745-.274-6.676-2.46a14.308,14.308,0,0,1,2.151-3.617,1.447,1.447,0,0,1-.742-.623,15.3,15.3,0,0,0-2.317,3.906l-.008,0-.169.452-.17.456.008,0a14.944,14.944,0,0,0-.545,2.127A1.346,1.346,0,0,1,309.536,413.581Z" transform="translate(-310.343 -402.454)" fill="#fff"/>
              <path id="Path_6127" data-name="Path 6127" d="M335.449,358.224l.008,0-.231-.426-.014-.026-.188-.351-.007,0a14.912,14.912,0,0,0-6.02-5.839,15.32,15.32,0,0,0-16.736,1.827,1.5,1.5,0,0,1,.616.75,14.152,14.152,0,0,1,8.159-3.256,13.9,13.9,0,0,1,13.1,6.93l-3.795,2.052c-.783.421-1.879,1.014-3.712,2.006l-4.546,2.459-.117.063-.382-.233-.021.133-2.672-.985a1.336,1.336,0,0,1-.357.9l2.877,1.06L319.3,378.838a14.211,14.211,0,0,1-11.465-13.7,1.388,1.388,0,0,1-.471.086,1.413,1.413,0,0,1-.5-.091A15.177,15.177,0,0,0,319.146,379.8v.008l.477.075.48.076v-.008a15.1,15.1,0,0,0,14.475-6.718l.01.006.095-.155s.155-.253.155-.253c.024-.039.052-.087.068-.115l.01-.017.007-.013.154-.251-.007,0A15.148,15.148,0,0,0,335.449,358.224Zm-15.2,20.765,2.066-13.226,5.376,3.288c2.167,1.326,3.407,2.084,4.188,2.56l1.856,1.135A14.063,14.063,0,0,1,320.253,378.99Zm14-7.082-.092-.054c-.509-.3-.73-.433-1.745-1.051l-9.492-5.8,7.88-4.261c1.157-.623,1.631-.871,2.807-1.485l1.007-.527A14.177,14.177,0,0,1,334.253,371.907Z" transform="translate(-308.167 -351.186)" fill="#e7f3fe"/>
            </g>
          </g>
          <g id="Group_5136" data-name="Group 5136" transform="translate(178.416 1.957)">
            <path id="Path_6133" data-name="Path 6133" d="M2179.066,312.13h-17.833V301.736h13.411l4.421,4.422Z" transform="translate(-2161.233 -301.736)" fill="#e5e5e5"/>
            <path id="Path_6134" data-name="Path 6134" d="M2296.234,301.736v5.548h4.749v-1.066l-4.452-4.452Z" transform="translate(-2283.15 -301.736)" fill="#fff"/>
            <path id="Path_6135" data-name="Path 6135" d="M2299.612,301.736v4.482h4.422Z" transform="translate(-2286.2 -301.736)" fill="#e5e5e5"/>
            <path id="Path_6136" data-name="Path 6136" d="M2187,336.11h-7.948a.315.315,0,0,1,0-.63H2187a.315.315,0,0,1,0,.63Z" transform="translate(-2177.037 -332.21)" fill="#fff"/>
            <path id="Path_6137" data-name="Path 6137" d="M2187,352.738h-7.948a.315.315,0,0,1,0-.63H2187a.315.315,0,0,1,0,.63Z" transform="translate(-2177.037 -347.226)" fill="#fff"/>
            <path id="Path_6138" data-name="Path 6138" d="M2187,370.238h-7.948a.315.315,0,0,1,0-.63H2187a.315.315,0,0,1,0,.63Z" transform="translate(-2177.037 -363.03)" fill="#fff"/>
          </g>
          <circle id="Ellipse_24" data-name="Ellipse 24" cx="0.533" cy="0.533" r="0.533" transform="translate(186.267 2.223)" fill="#f3e5eb"/>
          <path id="Path_8127" data-name="Path 8127" d="M0,0H11.334V13.666H0Z" transform="translate(108.441 0.315) rotate(10.935)" fill="#f3e5eb"/>
          <path id="Path_6139" data-name="Path 6139" d="M1472.581,350.84l-5.9-1.14a.291.291,0,1,1,.11-.571l5.9,1.14a.291.291,0,1,1-.11.571Z" transform="translate(-1355.367 -342.574)" fill="#7f7f7f"/>
          <path id="Path_6140" data-name="Path 6140" d="M1469.641,366.058l-5.9-1.14a.291.291,0,0,1,.11-.571l5.9,1.14a.291.291,0,0,1-.11.571Z" transform="translate(-1352.712 -356.317)" fill="#7f7f7f"/>
          <path id="Path_6141" data-name="Path 6141" d="M1466.62,381.695l-5.9-1.14a.291.291,0,0,1,.11-.571l5.9,1.14a.291.291,0,0,1-.11.571Z" transform="translate(-1349.983 -370.439)" fill="#7f7f7f"/>
          <path id="Path_6142" data-name="Path 6142" d="M1479.594,297.988a.485.485,0,1,1-.384-.568A.485.485,0,0,1,1479.594,297.988Z" transform="translate(-1366.373 -295.873)" fill="#7f7f7f"/>
          <path id="Path_6143" data-name="Path 6143" d="M2269.679,441.537l-17.222-1.814,1.137-10.8,13.655,1.439,3.191,3.943Z" transform="translate(-2065.199 -414.644)" fill="#e5e5e5"/>
          <path id="Path_6144" data-name="Path 6144" d="M2274.174,439.135l-12.819-1.35-.959,9.108,15.937,1.679.562-5.333-3.118-.328Z" transform="translate(-2072.369 -422.642)" fill="#fff"/>
          <path id="Path_6145" data-name="Path 6145" d="M2304.354,471.244l-8.3-.875a.348.348,0,0,1,.073-.692l8.3.875a.348.348,0,1,1-.073.692Z" transform="translate(-2104.287 -451.442)" fill="#f3e5eb"/>
          <path id="Path_6146" data-name="Path 6146" d="M2302.365,490.126l-8.3-.875a.348.348,0,1,1,.073-.692l8.3.875a.348.348,0,1,1-.073.692Z" transform="translate(-2102.49 -468.494)" fill="#f3e5eb"/>
          <path id="Path_6147" data-name="Path 6147" d="M2300.288,509.839l-8.3-.875a.348.348,0,1,1,.073-.692l8.3.875a.348.348,0,1,1-.073.692Z" transform="translate(-2100.615 -486.297)" fill="#f3e5eb"/>
          <circle id="Ellipse_25" data-name="Ellipse 25" cx="0.533" cy="0.533" r="0.533" transform="translate(194.306 16.244)" fill="#f3e5eb"/>
          <g id="Group_5138" data-name="Group 5138" transform="translate(278.157 2.411)">
            <path id="Path_6148" data-name="Path 6148" d="M3202.251,312.365a5.946,5.946,0,1,1-5.945-5.946A5.946,5.946,0,0,1,3202.251,312.365Z" transform="translate(-3190.359 -306.419)" fill="#e5e5e5"/>
            <g id="Group_5137" data-name="Group 5137" transform="translate(3.45 4.023)">
              <path id="Path_6149" data-name="Path 6149" d="M3227.862,351.883h-.011a.292.292,0,0,1-.208-.1l-1.615-1.835a.291.291,0,0,1,.437-.384l1.413,1.605,3.231-3.162a.291.291,0,1,1,.407.416l-3.45,3.377A.292.292,0,0,1,3227.862,351.883Z" transform="translate(-3225.957 -347.925)" fill="#fff"/>
            </g>
          </g>
          <g id="Group_5139" data-name="Group 5139" transform="translate(14.607 48.109)">
            <rect id="Rectangle_2003" data-name="Rectangle 2003" width="37.475" height="15.443" rx="7.721" transform="translate(37.475 15.443) rotate(180)" fill="#f3e5eb"/>
            <path id="Path_6150" data-name="Path 6150" d="M719.518,901.136v8.52l-9.818-9.818S719.318,901.136,719.518,901.136Z" transform="translate(-686.57 -888.023)" fill="#f3e5eb"/>
            <rect id="Rectangle_2004" data-name="Rectangle 2004" width="33.598" height="12.381" rx="6.19" transform="translate(35.536 13.912) rotate(180)" fill="#fff"/>
            <path id="Path_6151" data-name="Path 6151" d="M642.717,812.915h15.176a.666.666,0,0,0,0-1.331H642.717a.666.666,0,0,0,0,1.331Z" transform="translate(-625.477 -808.323)" fill="#f3e5eb"/>
            <rect id="Rectangle_2005" data-name="Rectangle 2005" width="28.888" height="0.748" rx="0.374" transform="translate(33.082 7.138) rotate(180)" fill="#f3e5eb"/>
            <rect id="Rectangle_2006" data-name="Rectangle 2006" width="28.888" height="0.748" rx="0.374" transform="translate(33.082 8.587) rotate(180)" fill="#f3e5eb"/>
          </g>
          <g id="Group_5140" data-name="Group 5140" transform="translate(257.522 49.908)">
            <rect id="Rectangle_2007" data-name="Rectangle 2007" width="3.17" height="2.853" rx="1.427" transform="translate(14.7 2.853) rotate(180)" fill="#f3e5eb"/>
            <path id="Rectangle_2008" data-name="Rectangle 2008" d="M1.427,0h.317A1.427,1.427,0,0,1,3.171,1.427v0A1.427,1.427,0,0,1,1.744,2.853H1.427A1.427,1.427,0,0,1,0,1.427v0A1.427,1.427,0,0,1,1.427,0Z" transform="translate(8.935 2.853) rotate(180)" fill="#f3e5eb"/>
            <rect id="Rectangle_2009" data-name="Rectangle 2009" width="3.171" height="2.853" rx="1.427" transform="translate(3.171 2.853) rotate(180)" fill="#f3e5eb"/>
          </g>
        </g>
      </g>
    </g>
  </g>
</svg>
