<svg xmlns="http://www.w3.org/2000/svg" width="15.256" height="11.565" viewBox="0 0 15.256 11.565">
  <path id="mail" d="M1.687,6.915H13.169a1.688,1.688,0,0,0,1.687-1.687V-2.563A1.688,1.688,0,0,0,13.169-4.25H1.687A1.688,1.688,0,0,0,0-2.563V5.228A1.688,1.688,0,0,0,1.687,6.915Zm0-.5A1.176,1.176,0,0,1,.97,6.17L4.4,2.658a.251.251,0,1,0-.359-.351l-3.4,3.48A1.179,1.179,0,0,1,.5,5.228V-2.01L6.34,2.933a1.681,1.681,0,0,0,2.181,0l5.833-4.947V5.228a1.177,1.177,0,0,1-.141.56L10.79,2.306a.251.251,0,0,0-.358.352l3.453,3.513a1.177,1.177,0,0,1-.716.241Zm0-10.16H13.169a1.186,1.186,0,0,1,1.179,1.079L8.2,2.549a1.18,1.18,0,0,1-1.531,0L.507-2.664A1.185,1.185,0,0,1,1.687-3.748Zm0,0" transform="translate(0.2 4.45)" fill="#97144d" stroke="#97144d" stroke-width="0.4"/>
</svg>
