<svg id="Logo_Max_Life" data-name="Logo Max Life" xmlns="http://www.w3.org/2000/svg" width="48" height="29.268" viewBox="0 0 48 29.268">
  <g id="Group_12" data-name="Group 12" transform="translate(0)">
    <g id="Group_11" data-name="Group 11">
      <path id="Path_1" data-name="Path 1" d="M37.146,100.48,40.053,103a4.345,4.345,0,0,1,1.355,3.474c0,3.07-3.163,4.519-4.24,7.093a5.13,5.13,0,0,0-.46,2.329c.024.3.21,1.556.575,1.641,2.734.641,4.974-1.283,4.095-4.348a3.953,3.953,0,0,0-.743-1.694h.172l2.907,2.566a3.161,3.161,0,0,1,.94,2.009,4.087,4.087,0,0,1-4.038,4.333,3.63,3.63,0,0,1-2.395-.855l-3.335-2.907a3.76,3.76,0,0,1-1.207-3.155c0-2.893,2.344-4.566,3.408-7.053a7.328,7.328,0,0,0,.584-3.087,4.169,4.169,0,0,0-.628-2.732Z" transform="translate(-30.533 -100.48)" fill="#f27930" fill-rule="evenodd"/>
      <path id="Path_6" data-name="Path 6" d="M14.057,323.836c.009.008,3.226,2.754,3.492,2.985l-.174.049a5.482,5.482,0,0,0-3.416-1.2,9.052,9.052,0,0,0-3.532.691q-.774.285-1.536.593a5.021,5.021,0,0,1-2.411.412,6.722,6.722,0,0,1-3.38-1.932L.27,322.992c.013.008.161-.05.174-.043a7.734,7.734,0,0,0,5.236,1.109c.791-.109,3.7-1.525,4.559-1.531a5.851,5.851,0,0,1,1.61.082,5.8,5.8,0,0,1,2.208,1.227" transform="translate(-0.27 -301.601)" fill="#143a72" fill-rule="evenodd"/>
    </g>
    <g id="Group_10" data-name="Group 10" transform="translate(16.223 2.027)">
      <g id="Group_5" data-name="Group 5" transform="translate(0 11.686)">
        <path id="Path_2" data-name="Path 2" d="M174.85,255.187c.673-.041,1.182-.109,1.242-.353a3.42,3.42,0,0,0,.059-.829v-6.31a3.432,3.432,0,0,0-.059-.83c-.06-.244-.569-.313-1.242-.353v-.422h4.715v.422c-.673.04-1.182.109-1.242.353a3.381,3.381,0,0,0-.06.83V254.1c0,.924.554,1.006,1.766,1.006,1.916,0,2.2-.748,2.812-1.958h.42l-.448,2.462H174.85Z" transform="translate(-174.85 -246.089)" fill="#f27930"/>
        <path id="Path_3" data-name="Path 3" d="M278.212,253.995a3.415,3.415,0,0,0,.059.829c.059.245.569.314,1.243.354v.422H274.8v-.422c.673-.04,1.182-.109,1.241-.354a3.366,3.366,0,0,0,.06-.829v-6.31a3.382,3.382,0,0,0-.06-.83c-.059-.244-.567-.313-1.241-.353v-.422h4.715v.422c-.674.04-1.183.109-1.243.353a3.431,3.431,0,0,0-.059.83Z" transform="translate(-265.387 -246.08)" fill="#f27930"/>
        <path id="Path_4" data-name="Path 4" d="M336.931,246.08h7.362v2.19h-.4c-.223-.966-.6-1.687-1.646-1.687h-1.9v4.08h1.422a1.211,1.211,0,0,0,1.362-1.305h.4v3.168h-.4c-.044-.749-.359-1.36-1.362-1.36h-1.422v2.828a3.362,3.362,0,0,0,.06.829c.059.245.569.314,1.241.354v.422H336.93v-.422c.673-.04,1.182-.109,1.242-.354a3.42,3.42,0,0,0,.059-.829v-6.31a3.436,3.436,0,0,0-.059-.83c-.06-.244-.569-.313-1.242-.353v-.421Z" transform="translate(-321.665 -246.08)" fill="#f27930"/>
        <path id="Path_5" data-name="Path 5" d="M422.59,255.187c.657-.041,1.181-.109,1.242-.353a3.418,3.418,0,0,0,.059-.829v-6.31a3.431,3.431,0,0,0-.059-.83c-.061-.244-.584-.313-1.242-.353v-.422h7.347v2.19h-.4c-.225-.966-.583-1.686-1.631-1.686H426V250.4h1.241a1.193,1.193,0,0,0,1.347-1.305h.4v3.168h-.4a1.23,1.23,0,0,0-1.347-1.36H426v3.087c0,1.033.553,1.115,1.781,1.115,1.9,0,2.185-.748,2.812-1.958h.4l-.448,2.462H422.59Z" transform="translate(-399.258 -246.089)" fill="#f27930"/>
      </g>
      <g id="Group_3" data-name="Group 3" transform="translate(0.042)">
        <path id="Path_7" data-name="Path 7" d="M206.791,131.329c-.5-.069-.688-.352-1.268-1.175l-2.773-3.966,2.2-2.991a1.863,1.863,0,0,1,1.14-.567.56.56,0,0,0,.355-.462h-3.068a.542.542,0,0,0,.354.5c.328.128.513.418.205.847l-1.606,2.14-1.385-2.072c-.441-.659-.179-.909.227-.97a.47.47,0,0,0,.33-.444h-4.069a.5.5,0,0,0,.358.476,1.793,1.793,0,0,1,1.081.815l2.292,3.457-2.209,3.06a3.863,3.863,0,0,1-.9,1.069.59.59,0,0,1-.672.014v0a2.448,2.448,0,0,1-.627-.956c-.542-1.318-2.314-5.833-3.192-8.1h-.952c-1.23,3.018-3.017,7.48-3.543,8.508a1.487,1.487,0,0,1-1.17.83s-1.082.178-1.2-.609c-.016-.163-.016-.335-.016-.578v-6.216c0-.78.251-1.223.992-1.323v0a.439.439,0,0,0,.322-.445h-2.644l-3.691,7.121-3.527-7.121H175.3s-.008.406.289.429v0c.57.039,1.027.241,1.107,1.213v5.942a8.2,8.2,0,0,1-.068.906c-.053.355-.287.547-.739.636v0a.477.477,0,0,0-.407.475h3.109v-.039a.521.521,0,0,0-.4-.433c-.46-.087-.706-.28-.751-.639a4.523,4.523,0,0,1-.069-.906V124.7h.028l3.444,7.067h.329l3.54-6.847h.041v5.228a3.787,3.787,0,0,1-.055.837c-.041.185-.314.269-.706.317a.478.478,0,0,0-.38.464h7.039a.552.552,0,0,0-.384-.49c-.359-.139-.449-.492-.29-.937l.585-1.632h3.574l.6,1.6c.177.455.145.809-.228.956a.559.559,0,0,0-.43.5h5.76a.5.5,0,0,0-.383-.513v0c-.246-.148-.281-.494.184-1.142l1.906-2.635,1.934,2.8c.482.719.275.961-.078,1.037a.509.509,0,0,0-.372.459h4.007a.474.474,0,0,0-.242-.444m-15.967-3.234,1.581-4.007h.028l1.451,4.007Z" transform="translate(-175.3 -122)" fill="#143a72"/>
      </g>
      <g id="Group_4" data-name="Group 4" transform="translate(0.648 23.772)">
        <rect id="Rectangle_9" data-name="Rectangle 9" width="0.609" height="3.36" transform="translate(0 0.057)" fill="#143a72"/>
        <path id="Path_8" data-name="Path 8" d="M206.011,377.746H206l-1-2.711-.009-.024h-.969v3.36h.61v-2.736h0l1.027,2.712.008.024h.945v-3.36h-.6Z" transform="translate(-201.921 -374.954)" fill="#143a72"/>
        <path id="Path_9" data-name="Path 9" d="M247.458,375.889c-.557-.174-.677-.268-.677-.526,0-.319.3-.385.543-.385.27,0,.915.065.922.066l.039,0,.022-.522-.03-.006a5.852,5.852,0,0,0-.981-.11c-.719,0-1.115.341-1.115.958s.3.814.971,1.032c.479.146.639.233.639.464,0,.314-.17.447-.571.447-.294,0-.916-.071-.923-.071l-.038,0-.034.537.033.006a7.15,7.15,0,0,0,1,.1c.784,0,1.133-.319,1.133-1.034,0-.585-.284-.74-.936-.957" transform="translate(-240.11 -374.41)" fill="#143a72"/>
        <path id="Path_10" data-name="Path 10" d="M284.51,377.284c0,.389-.178.547-.615.547s-.6-.158-.6-.547V375.01h-.606v2.274c0,.781.372,1.129,1.205,1.129s1.22-.348,1.22-1.129V375.01h-.6Z" transform="translate(-273.182 -374.954)" fill="#143a72"/>
        <path id="Path_11" data-name="Path 11" d="M326.567,376.1c0-.721-.383-1.087-1.139-1.087H324.21v3.36h.6v-1.155h.572l.079,0,.463,1.158h.665l-.536-1.306a.973.973,0,0,0,.513-.968m-1.755-.525h.618a.484.484,0,0,1,.519.533.494.494,0,0,1-.509.562h-.627Z" transform="translate(-310.791 -374.954)" fill="#143a72"/>
        <path id="Path_12" data-name="Path 12" d="M362.9,375.01h-1.07l-.8,3.315-.011.045h.607l.171-.679h1.113l.194.679h.607l-.8-3.332Zm-.48.539.367,1.576h-.863l.377-1.576Z" transform="translate(-344.134 -374.954)" fill="#143a72"/>
        <path id="Path_13" data-name="Path 13" d="M404.93,377.746h-.01l-1-2.711-.009-.024h-.969v3.36h.609v-2.736l1.03,2.712.009.024h.947v-3.36h-.606Z" transform="translate(-382.106 -374.954)" fill="#143a72"/>
        <path id="Path_14" data-name="Path 14" d="M447.067,377.236c-.006,0-.575.061-.793.061-.537,0-.7-.267-.7-1.146s.16-1.156.686-1.156c.247,0,.8.065.807.066l.039,0,.023-.541-.03-.006a5.541,5.541,0,0,0-.911-.11c-1.027,0-1.238.7-1.238,1.742,0,1.066.207,1.727,1.238,1.727a7.019,7.019,0,0,0,.9-.1l.032-.006-.017-.546Z" transform="translate(-420.16 -374.41)" fill="#143a72"/>
        <path id="Path_15" data-name="Path 15" d="M484.083,375.572v-.562H482.01v3.36h2.073V377.8h-1.472v-.829H483.8v-.553h-1.188v-.85Z" transform="translate(-453.73 -374.954)" fill="#143a72"/>
      </g>
    </g>
  </g>
</svg>
